<svg xmlns="http://www.w3.org/2000/svg" width="440" height="390" viewBox="0 0 440 390" role="img" aria-label="LANGUAGE STACK"><text x="220.0" y="26" text-anchor="middle" fill="#5EEAD4" font-family="ui-monospace,SFMono-Regular,Consolas,monospace" font-size="14" font-weight="700" letter-spacing=".6">LANGUAGE STACK</text><polygon points="220,181 244.2,195 244.2,223 220,237 195.8,223 195.8,195" fill="none" stroke="#1B3526" stroke-dasharray="3 3"/><polygon points="220,153 268.5,181 268.5,237 220,265 171.5,237 171.5,181" fill="none" stroke="#1B3526" stroke-dasharray="3 3"/><polygon points="220,125 292.7,167 292.7,251 220,293 147.3,251 147.3,167" fill="none" stroke="#1B3526" stroke-dasharray="3 3"/><polygon points="220,97 317,153 317,265 220,321 123,265 123,153" fill="none" stroke="#1B3526" stroke-dasharray="0"/><path d="M220.0 209L220 97" stroke="#1B3526"/><path d="M220.0 209L317 153" stroke="#1B3526"/><path d="M220.0 209L317 265" stroke="#1B3526"/><path d="M220.0 209L220 321" stroke="#1B3526"/><path d="M220.0 209L123 265" stroke="#1B3526"/><path d="M220.0 209L123 153" stroke="#1B3526"/><polygon points="220,113.8 292.7,167 297.6,253.8 220,270.6 161.8,242.6 161.8,175.4" fill="#39FF8A" fill-opacity=".18" stroke="#39FF8A" stroke-width="2" stroke-linejoin="round"><animate attributeName="points" from="220,209 220,209 220,209 220,209 220,209 220,209" to="220,113.8 292.7,167 297.6,253.8 220,270.6 161.8,242.6 161.8,175.4" dur="1.2s" calcMode="spline" keySplines=".2 .8 .2 1" keyTimes="0;1" fill="freeze"/></polygon><circle cx="220" cy="113.8" r="3.5" fill="#39FF8A"/><circle cx="292.7" cy="167" r="3.5" fill="#39FF8A"/><circle cx="297.6" cy="253.8" r="3.5" fill="#39FF8A"/><circle cx="220" cy="270.6" r="3.5" fill="#39FF8A"/><circle cx="161.8" cy="242.6" r="3.5" fill="#39FF8A"/><circle cx="161.8" cy="175.4" r="3.5" fill="#39FF8A"/><text x="220" y="65" text-anchor="middle" fill="#D6F5DF" font-family="ui-monospace,SFMono-Regular,Consolas,monospace" font-size="12">Java</text><text x="220" y="80" text-anchor="middle" fill="#5F8A6E" font-family="ui-monospace,SFMono-Regular,Consolas,monospace" font-size="11">85%</text><text x="339.5" y="134" text-anchor="start" fill="#D6F5DF" font-family="ui-monospace,SFMono-Regular,Consolas,monospace" font-size="12">JavaScript</text><text x="339.5" y="149" text-anchor="start" fill="#5F8A6E" font-family="ui-monospace,SFMono-Regular,Consolas,monospace" font-size="11">75%</text><text x="339.5" y="288" text-anchor="start" fill="#D6F5DF" font-family="ui-monospace,SFMono-Regular,Consolas,monospace" font-size="12">HTML/CSS</text><text x="339.5" y="303" text-anchor="start" fill="#5F8A6E" font-family="ui-monospace,SFMono-Regular,Consolas,monospace" font-size="11">80%</text><text x="220" y="357" text-anchor="middle" fill="#D6F5DF" font-family="ui-monospace,SFMono-Regular,Consolas,monospace" font-size="12">PHP</text><text x="220" y="372" text-anchor="middle" fill="#5F8A6E" font-family="ui-monospace,SFMono-Regular,Consolas,monospace" font-size="11">55%</text><text x="100.5" y="288" text-anchor="end" fill="#D6F5DF" font-family="ui-monospace,SFMono-Regular,Consolas,monospace" font-size="12">Python</text><text x="100.5" y="303" text-anchor="end" fill="#5F8A6E" font-family="ui-monospace,SFMono-Regular,Consolas,monospace" font-size="11">60%</text><text x="100.5" y="134" text-anchor="end" fill="#D6F5DF" font-family="ui-monospace,SFMono-Regular,Consolas,monospace" font-size="12">C++</text><text x="100.5" y="149" text-anchor="end" fill="#5F8A6E" font-family="ui-monospace,SFMono-Regular,Consolas,monospace" font-size="11">60%</text></svg>